<mxfile host="app.diagrams.net" modified="2023-10-28T19:49:07.224Z" agent="Mozilla/5.0 (Windows NT 10.0; Win64; x64) AppleWebKit/537.36 (KHTML, like Gecko) Chrome/118.0.0.0 Safari/537.36" etag="oCuhBLfhf2tMKpz5fVuy" version="22.0.8" type="device">
  <diagram name="Page-1" id="b5b7bab2-c9e2-2cf4-8b2a-24fd1a2a6d21">
    <mxGraphModel dx="929" dy="499" grid="0" gridSize="10" guides="1" tooltips="1" connect="1" arrows="1" fold="1" page="1" pageScale="1" pageWidth="827" pageHeight="1169" background="none" math="0" shadow="0">
      <root>
        <mxCell id="0" />
        <mxCell id="1" parent="0" />
        <mxCell id="lPUC5yBsDt-mfT22Zlh5-1" value="&lt;span style=&quot;font-size: 13px;&quot;&gt;&amp;nbsp; &amp;nbsp;&amp;lt;&amp;lt;profile&amp;gt;&amp;gt;&lt;br style=&quot;font-size: 13px;&quot;&gt;&amp;nbsp; &amp;nbsp; Application&lt;br style=&quot;font-size: 13px;&quot;&gt;&lt;/span&gt;" style="shape=folder;fontStyle=1;spacingTop=10;tabWidth=40;tabHeight=14;tabPosition=left;html=1;whiteSpace=wrap;verticalAlign=top;align=left;fontSize=13;" vertex="1" parent="1">
          <mxGeometry x="184" y="411" width="585" height="467" as="geometry" />
        </mxCell>
        <mxCell id="lPUC5yBsDt-mfT22Zlh5-2" value="«metaclass»&lt;br style=&quot;font-size: 13px;&quot;&gt;&lt;b style=&quot;font-size: 13px;&quot;&gt;Notification&lt;/b&gt;" style="html=1;whiteSpace=wrap;fontSize=13;" vertex="1" parent="1">
          <mxGeometry x="313" y="520" width="110" height="50" as="geometry" />
        </mxCell>
        <mxCell id="lPUC5yBsDt-mfT22Zlh5-11" value="" style="edgeStyle=orthogonalEdgeStyle;rounded=0;orthogonalLoop=1;jettySize=auto;html=1;fontSize=13;" edge="1" parent="1" source="lPUC5yBsDt-mfT22Zlh5-3" target="lPUC5yBsDt-mfT22Zlh5-2">
          <mxGeometry relative="1" as="geometry" />
        </mxCell>
        <mxCell id="lPUC5yBsDt-mfT22Zlh5-3" value="&amp;lt;&amp;lt;Stereotype&amp;gt;&amp;gt;&lt;br style=&quot;font-size: 13px;&quot;&gt;Message" style="swimlane;fontStyle=0;childLayout=stackLayout;horizontal=1;startSize=26;fillColor=none;horizontalStack=0;resizeParent=1;resizeParentMax=0;resizeLast=0;collapsible=1;marginBottom=0;whiteSpace=wrap;html=1;fontSize=13;" vertex="1" parent="1">
          <mxGeometry x="211" y="618" width="140" height="78" as="geometry" />
        </mxCell>
        <mxCell id="lPUC5yBsDt-mfT22Zlh5-4" value="head: string" style="text;strokeColor=none;fillColor=none;align=left;verticalAlign=top;spacingLeft=4;spacingRight=4;overflow=hidden;rotatable=0;points=[[0,0.5],[1,0.5]];portConstraint=eastwest;whiteSpace=wrap;html=1;fontSize=13;" vertex="1" parent="lPUC5yBsDt-mfT22Zlh5-3">
          <mxGeometry y="26" width="140" height="26" as="geometry" />
        </mxCell>
        <mxCell id="lPUC5yBsDt-mfT22Zlh5-5" value="body: string" style="text;strokeColor=none;fillColor=none;align=left;verticalAlign=top;spacingLeft=4;spacingRight=4;overflow=hidden;rotatable=0;points=[[0,0.5],[1,0.5]];portConstraint=eastwest;whiteSpace=wrap;html=1;fontSize=13;" vertex="1" parent="lPUC5yBsDt-mfT22Zlh5-3">
          <mxGeometry y="52" width="140" height="26" as="geometry" />
        </mxCell>
        <mxCell id="lPUC5yBsDt-mfT22Zlh5-10" value="" style="edgeStyle=orthogonalEdgeStyle;rounded=0;orthogonalLoop=1;jettySize=auto;html=1;fontSize=13;" edge="1" parent="1" source="lPUC5yBsDt-mfT22Zlh5-7" target="lPUC5yBsDt-mfT22Zlh5-2">
          <mxGeometry relative="1" as="geometry" />
        </mxCell>
        <mxCell id="lPUC5yBsDt-mfT22Zlh5-7" value="&amp;lt;&amp;lt;Stereotype&amp;gt;&amp;gt;&lt;br style=&quot;font-size: 13px;&quot;&gt;NotificationBasic" style="swimlane;fontStyle=0;childLayout=stackLayout;horizontal=1;startSize=26;fillColor=none;horizontalStack=0;resizeParent=1;resizeParentMax=0;resizeLast=0;collapsible=1;marginBottom=0;whiteSpace=wrap;html=1;fontSize=13;" vertex="1" parent="1">
          <mxGeometry x="385" y="618" width="140" height="52" as="geometry" />
        </mxCell>
        <mxCell id="lPUC5yBsDt-mfT22Zlh5-8" value="time: Time" style="text;strokeColor=none;fillColor=none;align=left;verticalAlign=top;spacingLeft=4;spacingRight=4;overflow=hidden;rotatable=0;points=[[0,0.5],[1,0.5]];portConstraint=eastwest;whiteSpace=wrap;html=1;fontSize=13;" vertex="1" parent="lPUC5yBsDt-mfT22Zlh5-7">
          <mxGeometry y="26" width="140" height="26" as="geometry" />
        </mxCell>
        <mxCell id="lPUC5yBsDt-mfT22Zlh5-13" value="«enumeration»&lt;br style=&quot;border-color: var(--border-color); font-size: 13px;&quot;&gt;&lt;span style=&quot;border-color: var(--border-color); font-size: 13px;&quot;&gt;VacationType&lt;/span&gt;" style="swimlane;fontStyle=0;childLayout=stackLayout;horizontal=1;startSize=26;fillColor=none;horizontalStack=0;resizeParent=1;resizeParentMax=0;resizeLast=0;collapsible=1;marginBottom=0;whiteSpace=wrap;html=1;fontSize=13;" vertex="1" parent="1">
          <mxGeometry x="577" y="457" width="140" height="130" as="geometry" />
        </mxCell>
        <mxCell id="lPUC5yBsDt-mfT22Zlh5-14" value="&lt;div style=&quot;line-height: 19px;&quot;&gt;&lt;span style=&quot;background-color: rgb(255, 255, 255);&quot;&gt;&lt;font style=&quot;font-size: 13px;&quot;&gt;Working vacation&lt;/font&gt;&lt;/span&gt;&lt;/div&gt;" style="text;strokeColor=none;fillColor=none;align=left;verticalAlign=top;spacingLeft=4;spacingRight=4;overflow=hidden;rotatable=0;points=[[0,0.5],[1,0.5]];portConstraint=eastwest;whiteSpace=wrap;html=1;" vertex="1" parent="lPUC5yBsDt-mfT22Zlh5-13">
          <mxGeometry y="26" width="140" height="26" as="geometry" />
        </mxCell>
        <mxCell id="lPUC5yBsDt-mfT22Zlh5-15" value="&lt;font style=&quot;font-size: 13px;&quot;&gt;Unpaid leave&lt;/font&gt;" style="text;strokeColor=none;fillColor=none;align=left;verticalAlign=top;spacingLeft=4;spacingRight=4;overflow=hidden;rotatable=0;points=[[0,0.5],[1,0.5]];portConstraint=eastwest;whiteSpace=wrap;html=1;" vertex="1" parent="lPUC5yBsDt-mfT22Zlh5-13">
          <mxGeometry y="52" width="140" height="26" as="geometry" />
        </mxCell>
        <mxCell id="lPUC5yBsDt-mfT22Zlh5-16" value="&lt;font style=&quot;font-size: 13px;&quot;&gt;Paid leave&lt;/font&gt;" style="text;strokeColor=none;fillColor=none;align=left;verticalAlign=top;spacingLeft=4;spacingRight=4;overflow=hidden;rotatable=0;points=[[0,0.5],[1,0.5]];portConstraint=eastwest;whiteSpace=wrap;html=1;" vertex="1" parent="lPUC5yBsDt-mfT22Zlh5-13">
          <mxGeometry y="78" width="140" height="26" as="geometry" />
        </mxCell>
        <mxCell id="lPUC5yBsDt-mfT22Zlh5-17" value="&lt;font style=&quot;font-size: 13px;&quot;&gt;Maternity leave&lt;/font&gt;" style="text;strokeColor=none;fillColor=none;align=left;verticalAlign=top;spacingLeft=4;spacingRight=4;overflow=hidden;rotatable=0;points=[[0,0.5],[1,0.5]];portConstraint=eastwest;whiteSpace=wrap;html=1;" vertex="1" parent="lPUC5yBsDt-mfT22Zlh5-13">
          <mxGeometry y="104" width="140" height="26" as="geometry" />
        </mxCell>
        <mxCell id="lPUC5yBsDt-mfT22Zlh5-18" value="«enumeration»&lt;br&gt;TaskType" style="swimlane;fontStyle=0;childLayout=stackLayout;horizontal=1;startSize=26;fillColor=none;horizontalStack=0;resizeParent=1;resizeParentMax=0;resizeLast=0;collapsible=1;marginBottom=0;whiteSpace=wrap;html=1;fontSize=13;" vertex="1" parent="1">
          <mxGeometry x="577" y="629" width="140" height="156" as="geometry" />
        </mxCell>
        <mxCell id="lPUC5yBsDt-mfT22Zlh5-19" value="&lt;div style=&quot;font-size: 13px; line-height: 19px;&quot;&gt;&lt;span style=&quot;background-color: rgb(255, 255, 255);&quot;&gt;Open&lt;/span&gt;&lt;/div&gt;" style="text;strokeColor=none;fillColor=none;align=left;verticalAlign=top;spacingLeft=4;spacingRight=4;overflow=hidden;rotatable=0;points=[[0,0.5],[1,0.5]];portConstraint=eastwest;whiteSpace=wrap;html=1;" vertex="1" parent="lPUC5yBsDt-mfT22Zlh5-18">
          <mxGeometry y="26" width="140" height="26" as="geometry" />
        </mxCell>
        <mxCell id="lPUC5yBsDt-mfT22Zlh5-20" value="Close" style="text;strokeColor=none;fillColor=none;align=left;verticalAlign=top;spacingLeft=4;spacingRight=4;overflow=hidden;rotatable=0;points=[[0,0.5],[1,0.5]];portConstraint=eastwest;whiteSpace=wrap;html=1;" vertex="1" parent="lPUC5yBsDt-mfT22Zlh5-18">
          <mxGeometry y="52" width="140" height="26" as="geometry" />
        </mxCell>
        <mxCell id="lPUC5yBsDt-mfT22Zlh5-21" value="InProgress" style="text;strokeColor=none;fillColor=none;align=left;verticalAlign=top;spacingLeft=4;spacingRight=4;overflow=hidden;rotatable=0;points=[[0,0.5],[1,0.5]];portConstraint=eastwest;whiteSpace=wrap;html=1;" vertex="1" parent="lPUC5yBsDt-mfT22Zlh5-18">
          <mxGeometry y="78" width="140" height="26" as="geometry" />
        </mxCell>
        <mxCell id="lPUC5yBsDt-mfT22Zlh5-22" value="InReview" style="text;strokeColor=none;fillColor=none;align=left;verticalAlign=top;spacingLeft=4;spacingRight=4;overflow=hidden;rotatable=0;points=[[0,0.5],[1,0.5]];portConstraint=eastwest;whiteSpace=wrap;html=1;" vertex="1" parent="lPUC5yBsDt-mfT22Zlh5-18">
          <mxGeometry y="104" width="140" height="26" as="geometry" />
        </mxCell>
        <mxCell id="lPUC5yBsDt-mfT22Zlh5-23" value="Backlog" style="text;strokeColor=none;fillColor=none;align=left;verticalAlign=top;spacingLeft=4;spacingRight=4;overflow=hidden;rotatable=0;points=[[0,0.5],[1,0.5]];portConstraint=eastwest;whiteSpace=wrap;html=1;" vertex="1" parent="lPUC5yBsDt-mfT22Zlh5-18">
          <mxGeometry y="130" width="140" height="26" as="geometry" />
        </mxCell>
      </root>
    </mxGraphModel>
  </diagram>
</mxfile>
